<?xml version="1.0" standalone="no"?>
<!DOCTYPE svg PUBLIC "-//W3C//DTD SVG 20010904//EN"
 "http://www.w3.org/TR/2001/REC-SVG-20010904/DTD/svg10.dtd">
<svg version="1.0" xmlns="http://www.w3.org/2000/svg"
 width="260.000000pt" height="260.000000pt" viewBox="0 0 260.000000 260.000000"
 preserveAspectRatio="xMidYMid meet">
<metadata>
Created by potrace 1.11, written by Peter Selinger 2001-2013
</metadata>
<g transform="translate(0.000000,260.000000) scale(0.100000,-0.100000)"
fill="#000000" stroke="none">
<path d="M1089 2201 c-19 -11 -160 -92 -314 -181 -154 -89 -295 -171 -313
-181 -404 -232 -382 -216 -413 -298 -27 -72 -22 -152 15 -214 27 -48 -3 -29
576 -362 146 -84 281 -161 300 -172 19 -11 73 -43 120 -70 206 -122 473 -273
480 -273 8 0 583 329 808 461 45 27 84 49 86 49 6 0 115 67 131 80 14 12 10
40 -8 52 -6 4 -3 13 7 23 15 16 15 20 2 40 -13 20 -13 25 -1 35 19 16 19 25
-1 45 -15 15 -15 17 2 36 16 18 16 21 2 36 -15 14 -15 19 -2 38 11 17 11 24 1
37 -6 8 -118 76 -247 150 -410 236 -830 478 -985 568 -222 129 -206 122 -246
101z m236 -167 c88 -50 333 -192 545 -314 212 -122 436 -252 498 -287 62 -36
110 -69 105 -73 -4 -4 -154 -92 -333 -195 -349 -201 -355 -205 -503 -288 l-98
-56 -222 128 c-239 139 -463 268 -872 504 -143 82 -261 150 -262 151 -2 2 157
95 242 142 11 6 173 99 359 207 296 171 342 195 360 185 12 -6 93 -53 181
-104z m-721 -744 c257 -148 486 -281 509 -294 130 -73 363 -210 371 -217 5 -4
1 -24 -9 -46 -11 -23 -19 -63 -19 -101 -1 -73 7 -73 -120 2 -70 42 -898 521
-1086 628 -105 61 -122 73 -135 98 -25 49 -29 106 -10 155 9 25 20 45 24 45 4
0 218 -121 475 -270z m1736 -85 c0 -2 -10 -9 -22 -15 -22 -11 -22 -10 -4 4 21
17 26 19 26 11z m-120 -70 c0 -2 -10 -9 -22 -15 -22 -11 -22 -10 -4 4 21 17
26 19 26 11z m100 -19 c0 -2 -7 -7 -16 -10 -8 -3 -12 -2 -9 4 6 10 25 14 25 6z
m160 -60 c0 -2 -7 -7 -16 -10 -8 -3 -12 -2 -9 4 6 10 25 14 25 6z m-215 -46
c-3 -5 -12 -10 -18 -10 -7 0 -6 4 3 10 19 12 23 12 15 0z m-70 -40 c-3 -5 -12
-10 -18 -10 -7 0 -6 4 3 10 19 12 23 12 15 0z m145 5 c0 -2 -10 -9 -22 -15
-22 -11 -22 -10 -4 4 21 17 26 19 26 11z m-280 -10 c0 -2 -10 -9 -22 -15 -22
-11 -22 -10 -4 4 21 17 26 19 26 11z m30 -49 c0 -2 -8 -10 -17 -17 -16 -13
-17 -12 -4 4 13 16 21 21 21 13z m-150 -21 c0 -2 -10 -9 -22 -15 -22 -11 -22
-10 -4 4 21 17 26 19 26 11z m130 -79 c0 -2 -7 -7 -16 -10 -8 -3 -12 -2 -9 4
6 10 25 14 25 6z m-360 -60 c0 -2 -7 -7 -16 -10 -8 -3 -12 -2 -9 4 6 10 25 14
25 6z m-70 -40 c0 -2 -7 -7 -16 -10 -8 -3 -12 -2 -9 4 6 10 25 14 25 6z m-71
-39 c-2 -1 -13 -9 -24 -17 -19 -14 -19 -14 -6 3 7 9 18 17 24 17 6 0 8 -1 6
-3z"/>
</g>
</svg>
